<svg xmlns="http://www.w3.org/2000/svg" xmlns:xlink="http://www.w3.org/1999/xlink" width="688" zoomAndPan="magnify" viewBox="0 0 516 269.25" height="359" preserveAspectRatio="xMidYMid meet" version="1.0"><defs><g/><clipPath id="437abcb0d8"><path d="M 0.113281 0.0195312 L 98 0.0195312 L 98 168.273438 L 0.113281 168.273438 Z M 0.113281 0.0195312 " clip-rule="nonzero"/></clipPath><clipPath id="54da70a33f"><rect x="0" width="98" y="0" height="169"/></clipPath><clipPath id="f3dc052431"><rect x="0" width="461" y="0" height="169"/></clipPath></defs><g transform="matrix(1, 0, 0, 1, 31, 50)"><g clip-path="url(#f3dc052431)"><g fill="#ffffff" fill-opacity="1"><g transform="translate(150.330325, 112.682377)"><g><path d="M 4.71875 0 L 4.71875 -8.96875 L 41.1875 -58.09375 L 5.671875 -58.09375 L 5.671875 -67.53125 L 54.59375 -67.53125 L 54.59375 -58.5625 L 17.953125 -9.4375 L 55.25 -9.4375 L 55.25 0 Z M 4.71875 0 "/></g></g></g><g fill="#ffffff" fill-opacity="1"><g transform="translate(206.113056, 112.682377)"><g><path d="M 13.703125 -29.65625 L 42.03125 -29.65625 C 41.59375 -33.875 40.175781 -37.226562 37.78125 -39.71875 C 35.382812 -42.207031 32.171875 -43.453125 28.140625 -43.453125 C 24.117188 -43.453125 20.863281 -42.207031 18.375 -39.71875 C 15.882812 -37.226562 14.328125 -33.875 13.703125 -29.65625 Z M 2.640625 -25.59375 C 2.640625 -30.945312 3.691406 -35.625 5.796875 -39.625 C 7.910156 -43.625 10.875 -46.738281 14.6875 -48.96875 C 18.5 -51.207031 22.953125 -52.328125 28.046875 -52.328125 C 33.085938 -52.328125 37.460938 -51.238281 41.171875 -49.0625 C 44.890625 -46.894531 47.769531 -43.875 49.8125 -40 C 51.863281 -36.125 52.890625 -31.609375 52.890625 -26.453125 L 52.890625 -22.484375 L 13.59375 -22.484375 C 14.101562 -18.015625 15.613281 -14.425781 18.125 -11.71875 C 20.644531 -9.007812 24.015625 -7.65625 28.234375 -7.65625 C 31.390625 -7.65625 34.050781 -8.441406 36.21875 -10.015625 C 38.394531 -11.585938 39.988281 -13.726562 41 -16.4375 L 52.234375 -16.4375 C 50.785156 -11.082031 47.9375 -6.796875 43.6875 -3.578125 C 39.4375 -0.367188 34.253906 1.234375 28.140625 1.234375 C 22.984375 1.234375 18.5 0.0976562 14.6875 -2.171875 C 10.875 -4.441406 7.910156 -7.585938 5.796875 -11.609375 C 3.691406 -15.640625 2.640625 -20.300781 2.640625 -25.59375 Z M 2.640625 -25.59375 "/></g></g></g><g fill="#ffffff" fill-opacity="1"><g transform="translate(261.615263, 112.682377)"><g><path d="M 2.640625 -25.59375 C 2.640625 -30.945312 3.691406 -35.625 5.796875 -39.625 C 7.910156 -43.625 10.890625 -46.738281 14.734375 -48.96875 C 18.578125 -51.207031 23.078125 -52.328125 28.234375 -52.328125 C 34.785156 -52.328125 40.25 -50.546875 44.625 -46.984375 C 49 -43.429688 51.753906 -38.664062 52.890625 -32.6875 L 41.84375 -32.6875 C 41.019531 -35.957031 39.441406 -38.535156 37.109375 -40.421875 C 34.785156 -42.316406 31.859375 -43.265625 28.328125 -43.265625 C 23.609375 -43.265625 19.941406 -41.65625 17.328125 -38.4375 C 14.710938 -35.226562 13.40625 -30.945312 13.40625 -25.59375 C 13.40625 -20.238281 14.710938 -15.941406 17.328125 -12.703125 C 19.941406 -9.460938 23.609375 -7.84375 28.328125 -7.84375 C 32.046875 -7.84375 35.085938 -8.894531 37.453125 -11 C 39.816406 -13.113281 41.34375 -15.929688 42.03125 -19.453125 L 53.078125 -19.453125 C 52.078125 -13.160156 49.367188 -8.140625 44.953125 -4.390625 C 40.546875 -0.640625 34.972656 1.234375 28.234375 1.234375 C 23.078125 1.234375 18.578125 0.0976562 14.734375 -2.171875 C 10.890625 -4.441406 7.910156 -7.585938 5.796875 -11.609375 C 3.691406 -15.640625 2.640625 -20.300781 2.640625 -25.59375 Z M 2.640625 -25.59375 "/></g></g></g><g fill="#ffffff" fill-opacity="1"><g transform="translate(313.717417, 112.682377)"><g><path d="M 9.921875 -17.65625 L 9.921875 -42.03125 L 1.796875 -42.03125 L 1.796875 -51.09375 L 9.921875 -51.09375 L 9.921875 -64.046875 L 20.59375 -64.046875 L 20.59375 -51.09375 L 38.625 -51.09375 L 38.625 -42.03125 L 20.59375 -42.03125 L 20.59375 -17.75 C 20.59375 -14.226562 21.378906 -11.757812 22.953125 -10.34375 C 24.523438 -8.925781 27.140625 -8.21875 30.796875 -8.21875 C 31.859375 -8.21875 33.082031 -8.28125 34.46875 -8.40625 C 35.851562 -8.53125 37.238281 -8.75 38.625 -9.0625 L 38.625 0.09375 C 36.613281 0.40625 34.722656 0.65625 32.953125 0.84375 C 31.191406 1.039062 29.554688 1.140625 28.046875 1.140625 C 21.941406 1.140625 17.394531 -0.367188 14.40625 -3.390625 C 11.414062 -6.421875 9.921875 -11.175781 9.921875 -17.65625 Z M 9.921875 -17.65625 "/></g></g></g><g fill="#ffffff" fill-opacity="1"><g transform="translate(354.11701, 112.682377)"><g><path d="M 4.0625 0 L 4.0625 -51.09375 L 13.796875 -51.09375 L 14.171875 -40.609375 C 15.171875 -44.265625 16.789062 -46.925781 19.03125 -48.59375 C 21.269531 -50.257812 24.085938 -51.09375 27.484375 -51.09375 L 33.15625 -51.09375 L 33.15625 -40.140625 L 27.015625 -40.140625 C 22.859375 -40.140625 19.769531 -39.050781 17.75 -36.875 C 15.738281 -34.707031 14.734375 -31.578125 14.734375 -27.484375 L 14.734375 0 Z M 4.0625 0 "/></g></g></g><g fill="#ffffff" fill-opacity="1"><g transform="translate(386.870314, 112.682377)"><g><path d="M 13.3125 -14.359375 C 13.3125 -11.960938 14.191406 -10.179688 15.953125 -9.015625 C 17.722656 -7.847656 20.054688 -7.265625 22.953125 -7.265625 C 27.609375 -7.265625 31.351562 -8.601562 34.1875 -11.28125 C 37.019531 -13.957031 38.4375 -17.3125 38.4375 -21.34375 L 38.4375 -24.46875 L 22.203125 -21.4375 C 18.921875 -20.875 16.617188 -20.007812 15.296875 -18.84375 C 13.972656 -17.675781 13.3125 -16.179688 13.3125 -14.359375 Z M 2.265625 -13.21875 C 2.265625 -17.375 3.695312 -20.679688 6.5625 -23.140625 C 9.425781 -25.597656 13.816406 -27.328125 19.734375 -28.328125 L 38.4375 -31.640625 L 38.4375 -32.109375 C 38.4375 -35.890625 37.378906 -38.753906 35.265625 -40.703125 C 33.160156 -42.660156 30.191406 -43.640625 26.359375 -43.640625 C 22.578125 -43.640625 19.660156 -42.707031 17.609375 -40.84375 C 15.566406 -38.988281 14.296875 -36.394531 13.796875 -33.0625 L 2.921875 -33.0625 C 3.492188 -39.039062 5.859375 -43.742188 10.015625 -47.171875 C 14.171875 -50.609375 19.679688 -52.328125 26.546875 -52.328125 C 33.660156 -52.328125 39.179688 -50.484375 43.109375 -46.796875 C 47.046875 -43.117188 49.015625 -37.941406 49.015625 -31.265625 L 49.015625 0 L 39.296875 0 L 39.015625 -7.84375 C 37.503906 -5.320312 35 -3.175781 31.5 -1.40625 C 28.007812 0.351562 24.054688 1.234375 19.640625 1.234375 C 16.367188 1.234375 13.425781 0.695312 10.8125 -0.375 C 8.195312 -1.445312 6.117188 -3.050781 4.578125 -5.1875 C 3.035156 -7.332031 2.265625 -10.007812 2.265625 -13.21875 Z M 2.265625 -13.21875 "/></g></g></g><g fill="#ffffff" fill-opacity="1"><g transform="translate(439.540804, 112.682377)"><g><path d="M 3.96875 0 L 3.96875 -69.421875 L 14.453125 -69.421875 L 14.453125 0 Z M 3.96875 0 "/></g></g></g><g clip-path="url(#437abcb0d8)"><g transform="matrix(1, 0, 0, 1, 0.000000000000003553, 0.000000000000014211)"><g clip-path="url(#54da70a33f)"><g fill="#2bffc6" fill-opacity="1"><g transform="translate(3.678603, 125.963776)"><g><path d="M 88.015625 -29.34375 L 88.015625 0 L -0.171875 0 L -0.171875 -37.71875 L 25.8125 -58.84375 L -0.171875 -58.84375 L -0.171875 -88.171875 L 88.015625 -88.171875 L 88.015625 -50.453125 L 62.703125 -29.34375 Z M 29.5 -58.84375 L 29.5 -29.34375 L 58.671875 -29.34375 L 58.671875 -58.84375 Z M 29.5 -58.84375 "/></g></g></g></g></g></g></g></g></svg>